<?xml version="1.0" encoding="utf-8"?>

<!DOCTYPE svg PUBLIC "-//W3C//DTD SVG 1.1//EN" "http://www.w3.org/Graphics/SVG/1.1/DTD/svg11.dtd">
<!-- Uploaded to: SVG Repo, www.svgrepo.com, Generator: SVG Repo Mixer Tools -->
<svg height="800px" width="800px" version="1.1" id="_x32_" xmlns="http://www.w3.org/2000/svg" xmlns:xlink="http://www.w3.org/1999/xlink" 
	 viewBox="0 0 512 512"  xml:space="preserve">
<style type="text/css">
	.st0{fill:#000000;}
</style>
<g>
	<path class="st0" d="M391.319,215.63v27.498c-0.01,37.353-15.144,71.07-39.682,95.649c-24.583,24.538-58.286,39.67-95.628,39.67
		c-37.346,0-71.065-15.132-95.642-39.67c-24.543-24.579-39.671-58.296-39.687-95.649V215.63H80.75v27.498
		c0.041,89.941,67.996,164.074,155.292,174.02V512h39.93v-94.852c87.286-9.946,155.236-84.079,155.277-174.02V215.63H391.319z"/>
	<path class="st0" d="M256.01,334.539c50.393,0,91.391-41.008,91.391-91.411V91.411C347.401,41.008,306.403,0,256.01,0
		c-50.397,0-91.406,41.008-91.406,91.411v151.718C164.604,293.531,205.613,334.539,256.01,334.539z M204.536,91.411
		c0-28.388,23.093-51.486,51.474-51.486c28.372,0,51.46,23.098,51.46,51.486v50.137H204.536V91.411z"/>
</g>
</svg>